solid OpenSCAD_Model
  facet normal 0.927185 -0.374603 0
    outer loop
      vertex 37.1436 -20.184 80
      vertex 38.9417 -15.7335 50
      vertex 38.9417 -15.7335 80
    endloop
  endfacet
  facet normal 0.927185 -0.374603 0
    outer loop
      vertex 38.9417 -15.7335 50
      vertex 37.1436 -20.184 80
      vertex 37.1436 -20.184 50
    endloop
  endfacet
  facet normal 0 0 1
    outer loop
      vertex -6 -11 80
      vertex 0 -8.22857e-07 80
      vertex 0 0 80
    endloop
  endfacet
  facet normal 0 0 1
    outer loop
      vertex 0 -8.22857e-07 80
      vertex -2.15694 -8.83535 80
      vertex -1.51709 -9.09387 80
    endloop
  endfacet
  facet normal 0 0 1
    outer loop
      vertex 0 -8.22857e-07 80
      vertex -6 -11 80
      vertex -2.15694 -8.83535 80
    endloop
  endfacet
  facet normal 0 0 1
    outer loop
      vertex -2.15694 -8.83535 80
      vertex -6 -11 80
      vertex -2.63604 -9.36396 80
    endloop
  endfacet
  facet normal 0 0 1
    outer loop
      vertex -2.63604 -9.36396 80
      vertex -6 -11 80
      vertex -3.29046 -9.95709 80
    endloop
  endfacet
  facet normal 0 0 1
    outer loop
      vertex -3.29046 -9.95709 80
      vertex -6 -11 80
      vertex -3.99987 -10.4832 80
    endloop
  endfacet
  facet normal 0 -0 1
    outer loop
      vertex -5 -11 80
      vertex -3.99987 -10.4832 80
      vertex -6 -11 80
    endloop
  endfacet
  facet normal 0 0 1
    outer loop
      vertex -3.99987 -10.4832 80
      vertex -5 -11 80
      vertex -4.75743 -10.9373 80
    endloop
  endfacet
  facet normal -0 0 1
    outer loop
      vertex -40 0 80
      vertex -6 -11 80
      vertex 0 0 80
    endloop
  endfacet
  facet normal 0 0 1
    outer loop
      vertex -6 -11 80
      vertex -40 0 80
      vertex -40 -11 80
    endloop
  endfacet
  facet normal 0 0 1
    outer loop
      vertex 6.39757 -2.58479 80
      vertex 0.0562561 -5.1997 80
      vertex 4.59946 -7.03527 80
    endloop
  endfacet
  facet normal 0 0 1
    outer loop
      vertex 0 -8.22857e-07 80
      vertex 0.0562561 -5.1997 80
      vertex 6.39757 -2.58479 80
    endloop
  endfacet
  facet normal 0 0 1
    outer loop
      vertex 0.0562561 -5.1997 80
      vertex 0 -8.22857e-07 80
      vertex -1.51709 -9.09387 80
    endloop
  endfacet
  facet normal 0 0 1
    outer loop
      vertex -4.75743 -10.9373 80
      vertex -5 -11 80
      vertex -5 -11.052 80
    endloop
  endfacet
  facet normal 0 0 1
    outer loop
      vertex 25.1267 -10.1518 80
      vertex 37.1436 -20.184 80
      vertex 38.9417 -15.7335 80
    endloop
  endfacet
  facet normal 0 0 1
    outer loop
      vertex 37.1436 -20.184 80
      vertex 25.1267 -10.1518 80
      vertex 23.3286 -14.6023 80
    endloop
  endfacet
  facet normal 0.927184 -0.374606 0
    outer loop
      vertex 0.0562561 -5.1997 80
      vertex -1.51709 -9.09387 80
      vertex 0.0562561 -5.1997 30
    endloop
  endfacet
  facet normal 0.927184 -0.374607 0
    outer loop
      vertex 0.0562561 -5.1997 30
      vertex 1.85437 -0.749214 0
      vertex 1.85437 -0.749214 30
    endloop
  endfacet
  facet normal 0.927184 -0.374607 2.37584e-08
    outer loop
      vertex 0.0562561 -5.1997 30
      vertex -1.51709 -9.09387 0
      vertex 1.85437 -0.749214 0
    endloop
  endfacet
  facet normal 0.927184 -0.374606 0
    outer loop
      vertex -1.51709 -9.09387 0
      vertex 0.0562561 -5.1997 30
      vertex -1.51709 -9.09387 80
    endloop
  endfacet
  facet normal 0.374611 0.927182 0
    outer loop
      vertex 38.9417 -15.7335 80
      vertex 25.1267 -10.1518 52.9
      vertex 25.1267 -10.1518 80
    endloop
  endfacet
  facet normal 0.37461 0.927182 -5.89076e-06
    outer loop
      vertex 1.85437 -0.749214 30
      vertex 25.1267 -10.1518 52.9
      vertex 38.9417 -15.7335 50
    endloop
  endfacet
  facet normal 0.374611 0.927182 -0
    outer loop
      vertex 38.9417 -15.7335 50
      vertex 25.1267 -10.1518 52.9
      vertex 38.9417 -15.7335 80
    endloop
  endfacet
  facet normal 0.374607 0.927184 -0
    outer loop
      vertex 6.39757 -2.58479 52.9
      vertex 0 -8.22857e-07 80
      vertex 6.39757 -2.58479 80
    endloop
  endfacet
  facet normal 0.374604 0.927185 6.52205e-07
    outer loop
      vertex 25.1267 -10.1518 52.9
      vertex 1.85437 -0.749214 30
      vertex 6.39757 -2.58479 52.9
    endloop
  endfacet
  facet normal 0.374607 0.927184 4.04426e-08
    outer loop
      vertex 1.85437 -0.749214 30
      vertex 0 -8.22857e-07 80
      vertex 6.39757 -2.58479 52.9
    endloop
  endfacet
  facet normal 0.374606 0.927184 0
    outer loop
      vertex 0 -8.22857e-07 0
      vertex 1.85437 -0.749214 30
      vertex 1.85437 -0.749214 0
    endloop
  endfacet
  facet normal 0.374606 0.927184 0
    outer loop
      vertex 1.85437 -0.749214 30
      vertex 0 -8.22857e-07 0
      vertex 0 -8.22857e-07 80
    endloop
  endfacet
  facet normal -0.374606 -0.927184 0
    outer loop
      vertex 0.0562561 -5.1997 80
      vertex 4.59946 -7.03527 52.9
      vertex 4.59946 -7.03527 80
    endloop
  endfacet
  facet normal -0.374605 -0.927184 -1.88729e-07
    outer loop
      vertex 0.0562561 -5.1997 30
      vertex 23.3286 -14.6023 52.9
      vertex 4.59946 -7.03527 52.9
    endloop
  endfacet
  facet normal -0.37461 -0.927182 5.61099e-06
    outer loop
      vertex 23.3286 -14.6023 52.9
      vertex 0.0562561 -5.1997 30
      vertex 37.1436 -20.184 50
    endloop
  endfacet
  facet normal -0.374606 -0.927184 0
    outer loop
      vertex 0.0562561 -5.1997 30
      vertex 4.59946 -7.03527 52.9
      vertex 0.0562561 -5.1997 80
    endloop
  endfacet
  facet normal -0.374611 -0.927182 0
    outer loop
      vertex 23.3286 -14.6023 52.9
      vertex 37.1436 -20.184 80
      vertex 23.3286 -14.6023 80
    endloop
  endfacet
  facet normal -0.374611 -0.927182 -0
    outer loop
      vertex 37.1436 -20.184 80
      vertex 23.3286 -14.6023 52.9
      vertex 37.1436 -20.184 50
    endloop
  endfacet
  facet normal -0.927185 0.374603 0
    outer loop
      vertex 23.3286 -14.6023 52.9
      vertex 25.1267 -10.1518 80
      vertex 25.1267 -10.1518 52.9
    endloop
  endfacet
  facet normal -0.927185 0.374603 0
    outer loop
      vertex 25.1267 -10.1518 80
      vertex 23.3286 -14.6023 52.9
      vertex 23.3286 -14.6023 80
    endloop
  endfacet
  facet normal 0.927184 -0.374606 0
    outer loop
      vertex 4.59946 -7.03527 80
      vertex 6.39757 -2.58479 52.9
      vertex 6.39757 -2.58479 80
    endloop
  endfacet
  facet normal 0.927184 -0.374606 0
    outer loop
      vertex 6.39757 -2.58479 52.9
      vertex 4.59946 -7.03527 80
      vertex 4.59946 -7.03527 52.9
    endloop
  endfacet
  facet normal 0 0 1
    outer loop
      vertex 6.39757 -2.58479 52.9
      vertex 23.3286 -14.6023 52.9
      vertex 25.1267 -10.1518 52.9
    endloop
  endfacet
  facet normal 0 0 1
    outer loop
      vertex 23.3286 -14.6023 52.9
      vertex 6.39757 -2.58479 52.9
      vertex 4.59946 -7.03527 52.9
    endloop
  endfacet
  facet normal 0 0 -1
    outer loop
      vertex 1.85437 -0.749214 0
      vertex -2.03371 -3.68612 0
      vertex -2 -3 0
    endloop
  endfacet
  facet normal 0 0 -1
    outer loop
      vertex 1.85437 -0.749214 0
      vertex -2.1345 -4.36563 0
      vertex -2.03371 -3.68612 0
    endloop
  endfacet
  facet normal 0 0 -1
    outer loop
      vertex -2.82655 -6.29978 0
      vertex -1.51709 -9.09387 0
      vertex -2.15694 -8.83535 0
    endloop
  endfacet
  facet normal 0 0 -1
    outer loop
      vertex 1.85437 -0.749214 0
      vertex -2.30142 -5.03199 0
      vertex -2.1345 -4.36563 0
    endloop
  endfacet
  facet normal 0 0 -1
    outer loop
      vertex -1.51709 -9.09387 0
      vertex -2.53284 -5.67878 0
      vertex -2.30142 -5.03199 0
    endloop
  endfacet
  facet normal 0 0 -1
    outer loop
      vertex -4.05025 -7.94975 0
      vertex -2.15694 -8.83535 0
      vertex -2.63604 -9.36396 0
    endloop
  endfacet
  facet normal 0 0 -1
    outer loop
      vertex -1.51709 -9.09387 0
      vertex -2.82655 -6.29978 0
      vertex -2.53284 -5.67878 0
    endloop
  endfacet
  facet normal 0 0 -1
    outer loop
      vertex -2.15694 -8.83535 0
      vertex -3.17971 -6.88899 0
      vertex -2.82655 -6.29978 0
    endloop
  endfacet
  facet normal 0 0 -1
    outer loop
      vertex -4.05025 -7.94975 0
      vertex -2.63604 -9.36396 0
      vertex -3.29046 -9.95709 0
    endloop
  endfacet
  facet normal 0 0 -1
    outer loop
      vertex -2.15694 -8.83535 0
      vertex -3.58893 -7.44075 0
      vertex -3.17971 -6.88899 0
    endloop
  endfacet
  facet normal 0 0 -1
    outer loop
      vertex -4.55925 -8.41107 0
      vertex -3.29046 -9.95709 0
      vertex -3.99987 -10.4832 0
    endloop
  endfacet
  facet normal 0 0 -1
    outer loop
      vertex -2.15694 -8.83535 0
      vertex -4.05025 -7.94975 0
      vertex -3.58893 -7.44075 0
    endloop
  endfacet
  facet normal 0 0 -1
    outer loop
      vertex -3.29046 -9.95709 0
      vertex -4.55925 -8.41107 0
      vertex -4.05025 -7.94975 0
    endloop
  endfacet
  facet normal 0 0 -1
    outer loop
      vertex -5.11101 -8.82029 0
      vertex -3.99987 -10.4832 0
      vertex -4.75743 -10.9373 0
    endloop
  endfacet
  facet normal 0 0 -1
    outer loop
      vertex -5 -11 0
      vertex -4.75743 -10.9373 0
      vertex -5 -11.052 0
    endloop
  endfacet
  facet normal 0 0 -1
    outer loop
      vertex -5.70022 -9.17345 0
      vertex -4.75743 -10.9373 0
      vertex -5 -11 0
    endloop
  endfacet
  facet normal 0 0 -1
    outer loop
      vertex -3.99987 -10.4832 0
      vertex -5.11101 -8.82029 0
      vertex -4.55925 -8.41107 0
    endloop
  endfacet
  facet normal 0 0 -1
    outer loop
      vertex -4.75743 -10.9373 0
      vertex -5.70022 -9.17345 0
      vertex -5.11101 -8.82029 0
    endloop
  endfacet
  facet normal 0 0 -1
    outer loop
      vertex -6.08824 -11 0
      vertex -5.70022 -9.17345 0
      vertex -5 -11 0
    endloop
  endfacet
  facet normal 0 0 -1
    outer loop
      vertex -6.08824 -11 0
      vertex -6.32122 -9.46716 0
      vertex -5.70022 -9.17345 0
    endloop
  endfacet
  facet normal 0 -0 -1
    outer loop
      vertex -6.32122 -9.46716 0
      vertex -6.08824 -11 0
      vertex -6.60871 -9.57002 0
    endloop
  endfacet
  facet normal 0 0 -1
    outer loop
      vertex -2.30142 -5.03199 0
      vertex 1.85437 -0.749214 0
      vertex -1.51709 -9.09387 0
    endloop
  endfacet
  facet normal -0 0 -1
    outer loop
      vertex 1.85437 -0.749214 0
      vertex -2 -3 0
      vertex 0 -8.22857e-07 0
    endloop
  endfacet
  facet normal -0 0 -1
    outer loop
      vertex 0 -8.22857e-07 0
      vertex -2 -3 0
      vertex 0 0 0
    endloop
  endfacet
  facet normal 0 0 -1
    outer loop
      vertex -10 0 0
      vertex -2 -3 0
      vertex -10 -3 0
    endloop
  endfacet
  facet normal 0 0 -1
    outer loop
      vertex -2 -3 0
      vertex -10 0 0
      vertex 0 0 0
    endloop
  endfacet
  facet normal -0.374611 -0.927182 0
    outer loop
      vertex -2.15694 -8.83535 0
      vertex -1.51709 -9.09387 80
      vertex -2.15694 -8.83535 80
    endloop
  endfacet
  facet normal -0.374611 -0.927182 -0
    outer loop
      vertex -1.51709 -9.09387 80
      vertex -2.15694 -8.83535 0
      vertex -1.51709 -9.09387 0
    endloop
  endfacet
  facet normal 0.41465 -0.167528 -0.894427
    outer loop
      vertex 37.1436 -20.184 50
      vertex 1.85437 -0.749214 30
      vertex 38.9417 -15.7335 50
    endloop
  endfacet
  facet normal 0.414649 -0.167529 -0.894427
    outer loop
      vertex 1.85437 -0.749214 30
      vertex 37.1436 -20.184 50
      vertex 0.0562561 -5.1997 30
    endloop
  endfacet
  facet normal 0.427473 -0.904028 0
    outer loop
      vertex -5 -11.052 0
      vertex -4.75743 -10.9373 80
      vertex -5 -11.052 80
    endloop
  endfacet
  facet normal 0.427473 -0.904028 0
    outer loop
      vertex -4.75743 -10.9373 80
      vertex -5 -11.052 0
      vertex -4.75743 -10.9373 0
    endloop
  endfacet
  facet normal 0.671558 -0.740952 0
    outer loop
      vertex -3.29046 -9.95709 0
      vertex -2.63604 -9.36396 80
      vertex -3.29046 -9.95709 80
    endloop
  endfacet
  facet normal 0.671558 -0.740952 0
    outer loop
      vertex -2.63604 -9.36396 80
      vertex -3.29046 -9.95709 0
      vertex -2.63604 -9.36396 0
    endloop
  endfacet
  facet normal 0.740954 -0.671556 0
    outer loop
      vertex -2.63604 -9.36396 80
      vertex -2.15694 -8.83535 0
      vertex -2.15694 -8.83535 80
    endloop
  endfacet
  facet normal 0.740954 -0.671556 0
    outer loop
      vertex -2.15694 -8.83535 0
      vertex -2.63604 -9.36396 80
      vertex -2.63604 -9.36396 0
    endloop
  endfacet
  facet normal 0.514133 -0.857711 0
    outer loop
      vertex -4.75743 -10.9373 0
      vertex -3.99987 -10.4832 80
      vertex -4.75743 -10.9373 80
    endloop
  endfacet
  facet normal 0.514133 -0.857711 0
    outer loop
      vertex -3.99987 -10.4832 80
      vertex -4.75743 -10.9373 0
      vertex -3.99987 -10.4832 0
    endloop
  endfacet
  facet normal 0.595682 -0.803221 0
    outer loop
      vertex -3.99987 -10.4832 0
      vertex -3.29046 -9.95709 80
      vertex -3.99987 -10.4832 80
    endloop
  endfacet
  facet normal 0.595682 -0.803221 0
    outer loop
      vertex -3.29046 -9.95709 80
      vertex -3.99987 -10.4832 0
      vertex -3.29046 -9.95709 0
    endloop
  endfacet
  facet normal 0 -1 0
    outer loop
      vertex -40 -3 40
      vertex -10 -3 25
      vertex -30 -3 40
    endloop
  endfacet
  facet normal 0 -1 0
    outer loop
      vertex -30 -3 65.4
      vertex -40 -3 78
      vertex -40 -3 65.4
    endloop
  endfacet
  facet normal 0 -1 0
    outer loop
      vertex -40 -3 78
      vertex -30 -3 65.4
      vertex -2 -3 78
    endloop
  endfacet
  facet normal 0 -1 0
    outer loop
      vertex -30 -3 40
      vertex -2 -3 78
      vertex -30 -3 65.4
    endloop
  endfacet
  facet normal 0 -1 0
    outer loop
      vertex -10 -3 25
      vertex -2 -3 78
      vertex -30 -3 40
    endloop
  endfacet
  facet normal 0 -1 0
    outer loop
      vertex -2 -3 0
      vertex -10 -3 25
      vertex -10 -3 0
    endloop
  endfacet
  facet normal 0 -1 0
    outer loop
      vertex -10 -3 25
      vertex -2 -3 0
      vertex -2 -3 78
    endloop
  endfacet
  facet normal -0.939693 -0.34202 0
    outer loop
      vertex -6.08824 -11 0
      vertex -6.60871 -9.57002 78
      vertex -6.60871 -9.57002 0
    endloop
  endfacet
  facet normal -0.939693 -0.34202 0
    outer loop
      vertex -6.60871 -9.57002 78
      vertex -6.08824 -11 0
      vertex -6.08824 -11 78
    endloop
  endfacet
  facet normal -0.941546 0.336883 0
    outer loop
      vertex -2.53284 -5.67878 0
      vertex -2.30142 -5.03199 78
      vertex -2.30142 -5.03199 0
    endloop
  endfacet
  facet normal -0.941546 0.336883 0
    outer loop
      vertex -2.30142 -5.03199 78
      vertex -2.53284 -5.67878 0
      vertex -2.53284 -5.67878 78
    endloop
  endfacet
  facet normal -0.67155 0.740959 0
    outer loop
      vertex -4.05025 -7.94975 0
      vertex -4.55925 -8.41107 78
      vertex -4.05025 -7.94975 78
    endloop
  endfacet
  facet normal -0.67155 0.740959 0
    outer loop
      vertex -4.55925 -8.41107 78
      vertex -4.05025 -7.94975 0
      vertex -4.55925 -8.41107 0
    endloop
  endfacet
  facet normal -0.514104 0.857728 0
    outer loop
      vertex -5.11101 -8.82029 0
      vertex -5.70022 -9.17345 78
      vertex -5.11101 -8.82029 78
    endloop
  endfacet
  facet normal -0.514104 0.857728 0
    outer loop
      vertex -5.70022 -9.17345 78
      vertex -5.11101 -8.82029 0
      vertex -5.70022 -9.17345 0
    endloop
  endfacet
  facet normal -0.336874 0.94155 0
    outer loop
      vertex -6.32122 -9.46716 0
      vertex -6.60871 -9.57002 78
      vertex -6.32122 -9.46716 78
    endloop
  endfacet
  facet normal -0.336874 0.94155 0
    outer loop
      vertex -6.60871 -9.57002 78
      vertex -6.32122 -9.46716 0
      vertex -6.60871 -9.57002 0
    endloop
  endfacet
  facet normal -0.803203 0.595706 0
    outer loop
      vertex -3.58893 -7.44075 0
      vertex -3.17971 -6.88899 78
      vertex -3.17971 -6.88899 0
    endloop
  endfacet
  facet normal -0.803203 0.595706 0
    outer loop
      vertex -3.17971 -6.88899 78
      vertex -3.58893 -7.44075 0
      vertex -3.58893 -7.44075 78
    endloop
  endfacet
  facet normal -0.90399 0.427554 0
    outer loop
      vertex -2.82655 -6.29978 0
      vertex -2.53284 -5.67878 78
      vertex -2.53284 -5.67878 0
    endloop
  endfacet
  facet normal -0.90399 0.427554 0
    outer loop
      vertex -2.53284 -5.67878 78
      vertex -2.82655 -6.29978 0
      vertex -2.82655 -6.29978 78
    endloop
  endfacet
  facet normal -0.857728 0.514104 0
    outer loop
      vertex -3.17971 -6.88899 0
      vertex -2.82655 -6.29978 78
      vertex -2.82655 -6.29978 0
    endloop
  endfacet
  facet normal -0.857728 0.514104 0
    outer loop
      vertex -2.82655 -6.29978 78
      vertex -3.17971 -6.88899 0
      vertex -3.17971 -6.88899 78
    endloop
  endfacet
  facet normal -0.998795 0.0490722 0
    outer loop
      vertex -2.03371 -3.68612 0
      vertex -2 -3 78
      vertex -2 -3 0
    endloop
  endfacet
  facet normal -0.998795 0.0490722 0
    outer loop
      vertex -2 -3 78
      vertex -2.03371 -3.68612 0
      vertex -2.03371 -3.68612 78
    endloop
  endfacet
  facet normal -0.970029 0.242988 0
    outer loop
      vertex -2.30142 -5.03199 0
      vertex -2.1345 -4.36563 78
      vertex -2.1345 -4.36563 0
    endloop
  endfacet
  facet normal -0.970029 0.242988 0
    outer loop
      vertex -2.1345 -4.36563 78
      vertex -2.30142 -5.03199 0
      vertex -2.30142 -5.03199 78
    endloop
  endfacet
  facet normal -0.989178 0.146722 0
    outer loop
      vertex -2.1345 -4.36563 0
      vertex -2.03371 -3.68612 78
      vertex -2.03371 -3.68612 0
    endloop
  endfacet
  facet normal -0.989178 0.146722 0
    outer loop
      vertex -2.03371 -3.68612 78
      vertex -2.1345 -4.36563 0
      vertex -2.1345 -4.36563 78
    endloop
  endfacet
  facet normal -0.595706 0.803203 0
    outer loop
      vertex -4.55925 -8.41107 0
      vertex -5.11101 -8.82029 78
      vertex -4.55925 -8.41107 78
    endloop
  endfacet
  facet normal -0.595706 0.803203 0
    outer loop
      vertex -5.11101 -8.82029 78
      vertex -4.55925 -8.41107 0
      vertex -5.11101 -8.82029 0
    endloop
  endfacet
  facet normal -0.427554 0.90399 0
    outer loop
      vertex -5.70022 -9.17345 0
      vertex -6.32122 -9.46716 78
      vertex -5.70022 -9.17345 78
    endloop
  endfacet
  facet normal -0.427554 0.90399 0
    outer loop
      vertex -6.32122 -9.46716 78
      vertex -5.70022 -9.17345 0
      vertex -6.32122 -9.46716 0
    endloop
  endfacet
  facet normal -0.740959 0.67155 0
    outer loop
      vertex -4.05025 -7.94975 0
      vertex -3.58893 -7.44075 78
      vertex -3.58893 -7.44075 0
    endloop
  endfacet
  facet normal -0.740959 0.67155 0
    outer loop
      vertex -3.58893 -7.44075 78
      vertex -4.05025 -7.94975 0
      vertex -4.05025 -7.94975 78
    endloop
  endfacet
  facet normal 0 0 -1
    outer loop
      vertex -6.08824 -11 78
      vertex -36 -11 78
      vertex -6.60871 -9.57002 78
    endloop
  endfacet
  facet normal 0 0 -1
    outer loop
      vertex -2.1345 -4.36563 78
      vertex -2 -3 78
      vertex -2.03371 -3.68612 78
    endloop
  endfacet
  facet normal 0 0 -1
    outer loop
      vertex -2.30142 -5.03199 78
      vertex -2 -3 78
      vertex -2.1345 -4.36563 78
    endloop
  endfacet
  facet normal 0 0 -1
    outer loop
      vertex -2.53284 -5.67878 78
      vertex -2 -3 78
      vertex -2.30142 -5.03199 78
    endloop
  endfacet
  facet normal 0 0 -1
    outer loop
      vertex -2.82655 -6.29978 78
      vertex -2 -3 78
      vertex -2.53284 -5.67878 78
    endloop
  endfacet
  facet normal 0 0 -1
    outer loop
      vertex -3.17971 -6.88899 78
      vertex -2 -3 78
      vertex -2.82655 -6.29978 78
    endloop
  endfacet
  facet normal 0 0 -1
    outer loop
      vertex -3.58893 -7.44075 78
      vertex -2 -3 78
      vertex -3.17971 -6.88899 78
    endloop
  endfacet
  facet normal 0 0 -1
    outer loop
      vertex -4.05025 -7.94975 78
      vertex -2 -3 78
      vertex -3.58893 -7.44075 78
    endloop
  endfacet
  facet normal 0 0 -1
    outer loop
      vertex -4.55925 -8.41107 78
      vertex -2 -3 78
      vertex -4.05025 -7.94975 78
    endloop
  endfacet
  facet normal 0 0 -1
    outer loop
      vertex -5.11101 -8.82029 78
      vertex -2 -3 78
      vertex -4.55925 -8.41107 78
    endloop
  endfacet
  facet normal 0 0 -1
    outer loop
      vertex -5.70022 -9.17345 78
      vertex -2 -3 78
      vertex -5.11101 -8.82029 78
    endloop
  endfacet
  facet normal 0 0 -1
    outer loop
      vertex -6.60871 -9.57002 78
      vertex -5.70022 -9.17345 78
      vertex -6.32122 -9.46716 78
    endloop
  endfacet
  facet normal -0 0 -1
    outer loop
      vertex -5.70022 -9.17345 78
      vertex -6.60871 -9.57002 78
      vertex -2 -3 78
    endloop
  endfacet
  facet normal 0 0 -1
    outer loop
      vertex -36 -9.6 78
      vertex -6.60871 -9.57002 78
      vertex -36 -11 78
    endloop
  endfacet
  facet normal 0 0 -1
    outer loop
      vertex -40 -3 78
      vertex -6.60871 -9.57002 78
      vertex -36 -9.6 78
    endloop
  endfacet
  facet normal 0 0 -1
    outer loop
      vertex -40 -3 78
      vertex -36 -9.6 78
      vertex -40 -9.6 78
    endloop
  endfacet
  facet normal 0 0 -1
    outer loop
      vertex -6.60871 -9.57002 78
      vertex -40 -3 78
      vertex -2 -3 78
    endloop
  endfacet
  facet normal -1 0 0
    outer loop
      vertex -5 -11.052 0
      vertex -5 -11 80
      vertex -5 -11 0
    endloop
  endfacet
  facet normal -1 -0 0
    outer loop
      vertex -5 -11 80
      vertex -5 -11.052 0
      vertex -5 -11.052 80
    endloop
  endfacet
  facet normal 0 -1 0
    outer loop
      vertex -40 -11 80
      vertex -36 -11 78
      vertex -6 -11 80
    endloop
  endfacet
  facet normal 0 -1 0
    outer loop
      vertex -40 -11 77
      vertex -36 -11 78
      vertex -40 -11 80
    endloop
  endfacet
  facet normal 0 -1 -0
    outer loop
      vertex -36 -11 78
      vertex -40 -11 77
      vertex -36 -11 77
    endloop
  endfacet
  facet normal 0 -1 0
    outer loop
      vertex -6.08824 -11 78
      vertex -6 -11 80
      vertex -36 -11 78
    endloop
  endfacet
  facet normal 0 -1 -0
    outer loop
      vertex -6 -11 80
      vertex -6.08824 -11 78
      vertex -6 -11 78
    endloop
  endfacet
  facet normal 0 -1 0
    outer loop
      vertex -6.08824 -11 78
      vertex -6.08824 -11 0
      vertex -6 -11 78
    endloop
  endfacet
  facet normal 0 -1 0
    outer loop
      vertex -6 -11 78
      vertex -5 -11 80
      vertex -6 -11 80
    endloop
  endfacet
  facet normal 0 -1 0
    outer loop
      vertex -5 -11 0
      vertex -6 -11 78
      vertex -6.08824 -11 0
    endloop
  endfacet
  facet normal 0 -1 0
    outer loop
      vertex -6 -11 78
      vertex -5 -11 0
      vertex -5 -11 80
    endloop
  endfacet
  facet normal 1 -0 0
    outer loop
      vertex 0 -8.22857e-07 80
      vertex 0 0 0
      vertex 0 0 80
    endloop
  endfacet
  facet normal 1 0 0
    outer loop
      vertex 0 0 0
      vertex 0 -8.22857e-07 80
      vertex 0 -8.22857e-07 0
    endloop
  endfacet
  facet normal -1 0 0
    outer loop
      vertex -40 -9.6 77
      vertex -40 -11 77
      vertex -40 -9.6 78
    endloop
  endfacet
  facet normal -1 0 0
    outer loop
      vertex -40 -2 65.4
      vertex -40 0 40
      vertex -40 -2 40
    endloop
  endfacet
  facet normal -1 0 0
    outer loop
      vertex -40 0 40
      vertex -40 -2 65.4
      vertex -40 0 80
    endloop
  endfacet
  facet normal -1 0 0
    outer loop
      vertex -40 -3 78
      vertex -40 -2 65.4
      vertex -40 -3 65.4
    endloop
  endfacet
  facet normal -1 0 0
    outer loop
      vertex -40 -2 65.4
      vertex -40 -3 78
      vertex -40 0 80
    endloop
  endfacet
  facet normal -1 0 0
    outer loop
      vertex -40 -11 80
      vertex -40 -3 78
      vertex -40 -9.6 78
    endloop
  endfacet
  facet normal -1 0 0
    outer loop
      vertex -40 -3 78
      vertex -40 -11 80
      vertex -40 0 80
    endloop
  endfacet
  facet normal -1 0 0
    outer loop
      vertex -40 -11 80
      vertex -40 -9.6 78
      vertex -40 -11 77
    endloop
  endfacet
  facet normal 0 1 0
    outer loop
      vertex 0 0 80
      vertex -30 0 65.4
      vertex -40 0 80
    endloop
  endfacet
  facet normal 0 1 0
    outer loop
      vertex 0 0 80
      vertex -30 0 40
      vertex -30 0 65.4
    endloop
  endfacet
  facet normal 0 1 0
    outer loop
      vertex -10 0 25
      vertex -32 0 40
      vertex -30 0 40
    endloop
  endfacet
  facet normal 0 1 0
    outer loop
      vertex -32 0 40
      vertex -10 0 25
      vertex -40 0 40
    endloop
  endfacet
  facet normal 0 1 0
    outer loop
      vertex 0 0 80
      vertex -10 0 25
      vertex -30 0 40
    endloop
  endfacet
  facet normal 0 1 -0
    outer loop
      vertex 0 0 0
      vertex -10 0 25
      vertex 0 0 80
    endloop
  endfacet
  facet normal 0 1 0
    outer loop
      vertex -10 0 25
      vertex 0 0 0
      vertex -10 0 0
    endloop
  endfacet
  facet normal 0 1 -0
    outer loop
      vertex -32 0 65.4
      vertex -40 0 80
      vertex -30 0 65.4
    endloop
  endfacet
  facet normal 0 1 0
    outer loop
      vertex -40 0 40
      vertex -32 0 65.4
      vertex -32 0 40
    endloop
  endfacet
  facet normal 0 1 0
    outer loop
      vertex -32 0 65.4
      vertex -40 0 40
      vertex -40 0 80
    endloop
  endfacet
  facet normal -0.447214 -0 -0.894427
    outer loop
      vertex -40 -2 40
      vertex -10 -3 25
      vertex -40 -3 40
    endloop
  endfacet
  facet normal -0.447214 0 -0.894427
    outer loop
      vertex -10 -3 25
      vertex -40 -2 40
      vertex -10 0 25
    endloop
  endfacet
  facet normal -0.447214 0 -0.894427
    outer loop
      vertex -10 0 25
      vertex -40 -2 40
      vertex -40 0 40
    endloop
  endfacet
  facet normal -1 0 0
    outer loop
      vertex -10 -3 0
      vertex -10 0 25
      vertex -10 0 0
    endloop
  endfacet
  facet normal -1 -0 0
    outer loop
      vertex -10 0 25
      vertex -10 -3 0
      vertex -10 -3 25
    endloop
  endfacet
  facet normal 1 -0 0
    outer loop
      vertex -36 -11 78
      vertex -36 -9.6 77
      vertex -36 -9.6 78
    endloop
  endfacet
  facet normal 1 0 0
    outer loop
      vertex -36 -9.6 77
      vertex -36 -11 78
      vertex -36 -11 77
    endloop
  endfacet
  facet normal 0 1 -0
    outer loop
      vertex -36 -9.6 77
      vertex -40 -9.6 78
      vertex -36 -9.6 78
    endloop
  endfacet
  facet normal 0 1 0
    outer loop
      vertex -40 -9.6 78
      vertex -36 -9.6 77
      vertex -40 -9.6 77
    endloop
  endfacet
  facet normal 0 0 -1
    outer loop
      vertex -40 -11 77
      vertex -36 -9.6 77
      vertex -36 -11 77
    endloop
  endfacet
  facet normal -0 0 -1
    outer loop
      vertex -36 -9.6 77
      vertex -40 -11 77
      vertex -40 -9.6 77
    endloop
  endfacet
  facet normal -1 0 0
    outer loop
      vertex -30 -3 40
      vertex -30 0 65.4
      vertex -30 0 40
    endloop
  endfacet
  facet normal -1 -0 0
    outer loop
      vertex -30 0 65.4
      vertex -30 -3 40
      vertex -30 -3 65.4
    endloop
  endfacet
  facet normal 0 0 -1
    outer loop
      vertex -30 -3 65.4
      vertex -32 -2 65.4
      vertex -30 0 65.4
    endloop
  endfacet
  facet normal 0 0 -1
    outer loop
      vertex -40 -3 65.4
      vertex -32 -2 65.4
      vertex -30 -3 65.4
    endloop
  endfacet
  facet normal -0 0 -1
    outer loop
      vertex -32 -2 65.4
      vertex -40 -3 65.4
      vertex -40 -2 65.4
    endloop
  endfacet
  facet normal -0 0 -1
    outer loop
      vertex -30 0 65.4
      vertex -32 -2 65.4
      vertex -32 0 65.4
    endloop
  endfacet
  facet normal 0 -1 0
    outer loop
      vertex -40 -2 40
      vertex -32 -2 65.4
      vertex -40 -2 65.4
    endloop
  endfacet
  facet normal 0 -1 -0
    outer loop
      vertex -32 -2 65.4
      vertex -40 -2 40
      vertex -32 -2 40
    endloop
  endfacet
  facet normal 0 0 1
    outer loop
      vertex -32 -2 40
      vertex -30 0 40
      vertex -32 0 40
    endloop
  endfacet
  facet normal 0 0 1
    outer loop
      vertex -30 0 40
      vertex -32 -2 40
      vertex -30 -3 40
    endloop
  endfacet
  facet normal 0 0 1
    outer loop
      vertex -40 -3 40
      vertex -32 -2 40
      vertex -40 -2 40
    endloop
  endfacet
  facet normal 0 0 1
    outer loop
      vertex -32 -2 40
      vertex -40 -3 40
      vertex -30 -3 40
    endloop
  endfacet
  facet normal 1 -0 0
    outer loop
      vertex -32 -2 65.4
      vertex -32 0 40
      vertex -32 0 65.4
    endloop
  endfacet
  facet normal 1 0 0
    outer loop
      vertex -32 0 40
      vertex -32 -2 65.4
      vertex -32 -2 40
    endloop
  endfacet
endsolid OpenSCAD_Model
